HIERARCHY
ROOT hip
{
  OFFSET 5.51535 103.731 -2.80141
  CHANNELS 6 Xposition Yposition Zposition Zrotation Xrotation Yrotation
  JOINT abdomen
  {
    OFFSET 0 -1.186 -1.5018
    CHANNELS 6 Xposition Yposition Zposition Zrotation Xrotation Yrotation
    JOINT abdomen2
    {
      OFFSET 0 9.964 0.2134
      CHANNELS 6 Xposition Yposition Zposition Zrotation Xrotation Yrotation
      JOINT chest
      {
        OFFSET 0 13.134 -3.2573
        CHANNELS 6 Xposition Yposition Zposition Zrotation Xrotation Yrotation
        JOINT neck
        {
          OFFSET 0 20.686 -1.6905
          CHANNELS 6 Xposition Yposition Zposition Zrotation Xrotation Yrotation
          JOINT head
          {
            OFFSET 0 7.23801 -0.1237
            CHANNELS 6 Xposition Yposition Zposition Zrotation Xrotation Yrotation
            End Site
            {
              OFFSET 0 0 0
            }
          }
        }
        JOINT lCollar
        {
          OFFSET 1.7069 20.075 5.0056
          CHANNELS 6 Xposition Yposition Zposition Zrotation Xrotation Yrotation
          JOINT lShldr
          {
            OFFSET 13.6458 -0.0470195 -4.849
            CHANNELS 6 Xposition Yposition Zposition Zrotation Xrotation Yrotation
            JOINT lForeArm
            {
              OFFSET 28.3255 -0.97589 2.2888
              CHANNELS 6 Xposition Yposition Zposition Zrotation Xrotation Yrotation
              JOINT lHand
              {
                OFFSET 22.1583 -0.529998 10.8316
                CHANNELS 6 Xposition Yposition Zposition Zrotation Xrotation Yrotation
                JOINT lThumb1
                {
                  OFFSET 0.786 0.111997 2.5817
                  CHANNELS 6 Xposition Yposition Zposition Zrotation Xrotation Yrotation
                  JOINT lThumb2
                  {
                    OFFSET 0.360097 -0.877999 4.2331
                    CHANNELS 6 Xposition Yposition Zposition Zrotation Xrotation Yrotation
                    JOINT lThumb2_End
                    {
                      OFFSET 1.8127 -1.21601 2.2227
                      CHANNELS 6 Xposition Yposition Zposition Zrotation Xrotation Yrotation
                      End Site
                      {
                        OFFSET 0.0180981 -0.012195 0.0222007
                      }
                    }
                  }
                }
                JOINT lCarpal1
                {
                  OFFSET 0.9571 1.114 1.7695
                  CHANNELS 6 Xposition Yposition Zposition Zrotation Xrotation Yrotation
                  JOINT lIndex1
                  {
                    OFFSET 4.12461 0.486992 4.1451
                    CHANNELS 6 Xposition Yposition Zposition Zrotation Xrotation Yrotation
                    JOINT lIndex2
                    {
                      OFFSET 3.4052 -1.45401 2.7682
                      CHANNELS 6 Xposition Yposition Zposition Zrotation Xrotation Yrotation
                      JOINT lIndex2_End
                      {
                        OFFSET 1.45309 -1.79499 1.2713
                        CHANNELS 6 Xposition Yposition Zposition Zrotation Xrotation Yrotation
                        End Site
                        {
                          OFFSET 0.0144979 -0.0179083 0.0126995
                        }
                      }
                    }
                  }
                  JOINT lMid1
                  {
                    OFFSET 5.6954 0.209987 2.1184
                    CHANNELS 6 Xposition Yposition Zposition Zrotation Xrotation Yrotation
                    JOINT lMid2
                    {
                      OFFSET 3.9766 -1.53999 2.3863
                      CHANNELS 6 Xposition Yposition Zposition Zrotation Xrotation Yrotation
                      JOINT lMid2_End
                      {
                        OFFSET 1.4042 -1.926 1.125
                        CHANNELS 6 Xposition Yposition Zposition Zrotation Xrotation Yrotation
                        End Site
                        {
                          OFFSET 0.013999 -0.0193044 0.011301
                        }
                      }
                    }
                  }
                }
                JOINT lCarpal2
                {
                  OFFSET 2.0956 0.66 -0.3894
                  CHANNELS 6 Xposition Yposition Zposition Zrotation Xrotation Yrotation
                  JOINT lRing1
                  {
                    OFFSET 5.0395 -0.090013 2.4971
                    CHANNELS 6 Xposition Yposition Zposition Zrotation Xrotation Yrotation
                    JOINT lRing2
                    {
                      OFFSET 3.7921 -1.55199 1.4806
                      CHANNELS 6 Xposition Yposition Zposition Zrotation Xrotation Yrotation
                      JOINT lRing2_End
                      {
                        OFFSET 1.4655 -1.808 0.9609
                        CHANNELS 6 Xposition Yposition Zposition Zrotation Xrotation Yrotation
                        End Site
                        {
                          OFFSET 0.0147015 -0.0181014 0.00959957
                        }
                      }
                    }
                  }
                  JOINT lPinky1
                  {
                    OFFSET 4.9141 -1.269 0.3591
                    CHANNELS 6 Xposition Yposition Zposition Zrotation Xrotation Yrotation
                    JOINT lPinky2
                    {
                      OFFSET 3.1477 -1.685 0.8462
                      CHANNELS 6 Xposition Yposition Zposition Zrotation Xrotation Yrotation
                      JOINT lPinky2_End
                      {
                        OFFSET 0.805498 -1.58501 0.795499
                        CHANNELS 6 Xposition Yposition Zposition Zrotation Xrotation Yrotation
                        End Site
                        {
                          OFFSET 0.00809703 -0.0157944 0.00799848
                        }
                      }
                    }
                  }
                }
              }
            }
          }
        }
        JOINT rCollar
        {
          OFFSET -1.7069 20.075 5.0056
          CHANNELS 6 Xposition Yposition Zposition Zrotation Xrotation Yrotation
          JOINT rShldr
          {
            OFFSET -13.6458 -0.0470107 -4.849
            CHANNELS 6 Xposition Yposition Zposition Zrotation Xrotation Yrotation
            JOINT rForeArm
            {
              OFFSET -28.3255 -0.975895 2.2888
              CHANNELS 6 Xposition Yposition Zposition Zrotation Xrotation Yrotation
              JOINT rHand
              {
                OFFSET -22.1583 -0.530007 10.8316
                CHANNELS 6 Xposition Yposition Zposition Zrotation Xrotation Yrotation
                JOINT rThumb1
                {
                  OFFSET -0.785997 0.112005 2.5817
                  CHANNELS 6 Xposition Yposition Zposition Zrotation Xrotation Yrotation
                  JOINT rThumb2
                  {
                    OFFSET -0.360106 -0.877994 4.2331
                    CHANNELS 6 Xposition Yposition Zposition Zrotation Xrotation Yrotation
                    JOINT rThumb2_End
                    {
                      OFFSET -1.8127 -1.216 2.2227
                      CHANNELS 6 Xposition Yposition Zposition Zrotation Xrotation Yrotation
                      End Site
                      {
                        OFFSET -0.0180972 -0.0121973 0.0222005
                      }
                    }
                  }
                }
                JOINT rCarpal1
                {
                  OFFSET -0.9571 1.114 1.7695
                  CHANNELS 6 Xposition Yposition Zposition Zrotation Xrotation Yrotation
                  JOINT rIndex1
                  {
                    OFFSET -4.1246 0.487011 4.1451
                    CHANNELS 6 Xposition Yposition Zposition Zrotation Xrotation Yrotation
                    JOINT rIndex2
                    {
                      OFFSET -3.4052 -1.45401 2.7682
                      CHANNELS 6 Xposition Yposition Zposition Zrotation Xrotation Yrotation
                      JOINT rIndex2_End
                      {
                        OFFSET -1.4531 -1.795 1.2713
                        CHANNELS 6 Xposition Yposition Zposition Zrotation Xrotation Yrotation
                        End Site
                        {
                          OFFSET -0.0145077 -0.0180048 0.0127017
                        }
                      }
                    }
                  }
                  JOINT rMid1
                  {
                    OFFSET -5.6954 0.210002 2.1184
                    CHANNELS 6 Xposition Yposition Zposition Zrotation Xrotation Yrotation
                    JOINT rMid2
                    {
                      OFFSET -3.9766 -1.54 2.3863
                      CHANNELS 6 Xposition Yposition Zposition Zrotation Xrotation Yrotation
                      JOINT rMid2_End
                      {
                        OFFSET -1.4042 -1.926 1.125
                        CHANNELS 6 Xposition Yposition Zposition Zrotation Xrotation Yrotation
                        End Site
                        {
                          OFFSET -0.0139948 -0.0192916 0.0112994
                        }
                      }
                    }
                  }
                }
                JOINT rCarpal2
                {
                  OFFSET -2.0956 0.66 -0.3894
                  CHANNELS 6 Xposition Yposition Zposition Zrotation Xrotation Yrotation
                  JOINT rRing1
                  {
                    OFFSET -5.03951 -0.0899879 2.4971
                    CHANNELS 6 Xposition Yposition Zposition Zrotation Xrotation Yrotation
                    JOINT rRing2
                    {
                      OFFSET -3.7921 -1.55201 1.4806
                      CHANNELS 6 Xposition Yposition Zposition Zrotation Xrotation Yrotation
                      JOINT rRing2_End
                      {
                        OFFSET -1.4655 -1.808 0.960901
                        CHANNELS 6 Xposition Yposition Zposition Zrotation Xrotation Yrotation
                        End Site
                        {
                          OFFSET -0.0146934 -0.0180999 0.00959832
                        }
                      }
                    }
                  }
                  JOINT rPinky1
                  {
                    OFFSET -4.91411 -1.26899 0.359202
                    CHANNELS 6 Xposition Yposition Zposition Zrotation Xrotation Yrotation
                    JOINT rPinky2
                    {
                      OFFSET -3.14769 -1.68501 0.846199
                      CHANNELS 6 Xposition Yposition Zposition Zrotation Xrotation Yrotation
                      JOINT rPinky2_End
                      {
                        OFFSET -0.805498 -1.585 0.7955
                        CHANNELS 6 Xposition Yposition Zposition Zrotation Xrotation Yrotation
                        End Site
                        {
                          OFFSET -0.00810035 -0.0158035 0.00800029
                        }
                      }
                    }
                  }
                }
              }
            }
          }
        }
      }
    }
  }
  JOINT lThigh
  {
    OFFSET 8.367 -8.2066 0.5982
    CHANNELS 6 Xposition Yposition Zposition Zrotation Xrotation Yrotation
    JOINT lShin
    {
      OFFSET 2.1923 -43.463 -0.4932
      CHANNELS 6 Xposition Yposition Zposition Zrotation Xrotation Yrotation
      JOINT lFoot
      {
        OFFSET 0.733301 -45.8593 -2.6451
        CHANNELS 6 Xposition Yposition Zposition Zrotation Xrotation Yrotation
        End Site
        {
          OFFSET 2.6618 -4.2699 12.3931
        }
      }
    }
  }
  JOINT rThigh
  {
    OFFSET -8.367 -8.2066 0.5982
    CHANNELS 6 Xposition Yposition Zposition Zrotation Xrotation Yrotation
    JOINT rShin
    {
      OFFSET -2.1923 -43.463 -0.4931
      CHANNELS 6 Xposition Yposition Zposition Zrotation Xrotation Yrotation
      JOINT rFoot
      {
        OFFSET -0.733299 -45.8593 -2.6451
        CHANNELS 6 Xposition Yposition Zposition Zrotation Xrotation Yrotation
        End Site
        {
          OFFSET -2.6618 -4.2699 12.3931
        }
      }
    }
  }
}
MOTION
Frames:	4
Frame Time:	0.0333333
-5.85488 42.9509 -14.8248 18.7563 3.16448 7.50564 -4.60275e-008 -1.186 -1.5018 3.0408 20.454 -1.89758 1.13086e-006 9.964 0.213398 7.67754 40.7427 -5.64504 -4.12795e-007 13.134 -3.2573 7.67754 40.7426 -5.64503 -1.31577e-007 20.686 -1.6905 4.69762 -9.39537 -4.53529 5.82789e-008 7.23801 -0.1237 -4.58653 -22.2723 -7.72465 1.7069 20.075 5.0056 20.678 -11.8631 11.3451 13.6458 -0.0470147 -4.849 -50.0367 -2.7984 -37.0955 28.3255 -0.975893 2.2888 -39.8999 -30.5277 -88.7849 22.1583 -0.529993 10.8316 39.3738 9.7306 -58.0254 0.786003 0.111998 2.5817 -4.57557 4.06662 -7.66608 0.360098 -0.877998 4.2331 -3.72235 -0.224278 -6.80107 1.8127 -1.21601 2.2227 -3.30026 -0.221041 -6.03118 0.9571 1.114 1.7695 -5.20703e-032 -3.75206e-015 -7.95139e-016 4.12461 0.48699 4.1451 15.3689 -9.55323 -10.6218 3.4052 -1.45401 2.7682 11.1399 -5.4395 -4.11713 1.4531 -1.79499 1.2713 13.3078 -6.60425 -4.80607 5.69541 0.209986 2.1184 16.1563 -12.5217 -6.57496 3.9766 -1.53999 2.3863 13.5525 -7.43735 -4.90448 1.4042 -1.926 1.125 15.1098 -8.37732 -5.36412 2.0956 0.66 -0.3894 -5.20703e-032 -3.75206e-015 -7.95139e-016 5.0395 -0.0900126 2.4971 16.7869 -8.72521 -4.11222 3.7921 -1.55199 1.4806 14.1478 -8.52979 -5.89764 1.4655 -1.808 0.9609 14.8022 -8.96703 -6.12579 4.9141 -1.269 0.359102 17.7381 -8.42546 -1.65465 3.1477 -1.685 0.8462 15.8228 -10.2565 -6.28134 0.805497 -1.58501 0.795499 14.426 -9.27323 -5.83143 -1.7069 20.075 5.0056 -21.3952 -0.207299 4.54163 -13.6458 -0.0470156 -4.849 8.45742 -41.2656 34.1043 -28.3255 -0.975885 2.2888 -7.1848 -7.04036 12.9249 -22.1583 -0.530017 10.8316 -21.6824 -47.9485 -16.1712 -0.785999 0.112004 2.5817 -2.51051 7.68557 -9.65618 -0.360105 -0.877994 4.2331 1.47674 -1.18404 4.36337 -1.8127 -1.216 2.2227 4.07779 -2.86833 11.5735 -0.9571 1.114 1.7695 3.18055e-015 -1.59028e-015 9.54166e-015 -4.1246 0.487009 4.1451 -11.9024 -1.58824 0.772041 -3.4052 -1.45401 2.7682 -4.20826 -1.42759 0.5396 -1.4531 -1.795 1.2713 -9.7456 -3.36404 1.089 -5.6954 0.210002 2.1184 -20.5892 -7.59926 1.40571 -3.9766 -1.54 2.3863 -7.93954 -3.06357 0.883118 -1.4042 -1.926 1.125 -17.5356 -6.88964 1.37573 -2.0956 0.66 -0.3894 3.18055e-015 -1.59028e-015 9.54166e-015 -5.03951 -0.0899893 2.4971 -28.6613 -11.0476 0.694947 -3.7921 -1.55201 1.4806 -4.41909 -1.86883 0.727493 -1.4655 -1.808 0.9609 -16.676 -7.30719 1.97976 -4.91411 -1.26899 0.359202 -31.4138 -10.2864 -1.97784 -3.14769 -1.68501 0.846198 -6.54919 -2.98934 0.932875 -0.805501 -1.58499 0.795498 -16.318 -7.6112 1.6822 8.367 -8.20659 0.5982 33.929 -86.1477 28.5765 2.19216 -43.463 -0.493723 -178.125 60.822 179.172 0.733294 -45.8593 -2.64508 -26.8017 -26.8983 -18.5332 -8.367 -8.20659 0.5982 -42.1813 -73.374 -2.19164 -2.19201 -43.463 -0.493185 159.816 36.0686 -148.055 -0.733297 -45.8593 -2.64509 -21.4283 -53.5405 -6.24459 
-5.17878 40.2545 -16.4977 18.5986 -1.14355 7.84841 4.4621e-007 -1.186 -1.5018 3.17315 20.7016 -1.76002 1.68756e-006 9.964 0.213399 7.94939 41.2391 -5.43922 -3.1095e-007 13.134 -3.2573 7.94939 41.2391 -5.43922 -1.20049e-006 20.686 -1.6905 4.82388 -8.86147 -4.78922 8.85348e-007 7.23801 -0.123701 -4.16065 -22.786 -7.46642 1.7069 20.075 5.0056 20.3453 -11.8259 11.2494 13.6458 -0.0470139 -4.849 -49.6298 -2.55725 -37.6044 28.3255 -0.975891 2.2888 -39.9412 -30.4997 -88.6589 22.1583 -0.529988 10.8316 39.2806 10.0583 -58.1133 0.786006 0.111997 2.5817 -5.28851 4.32991 -8.50648 0.360098 -0.878 4.2331 -3.7224 -0.224318 -6.80106 1.8127 -1.21601 2.2227 -3.30028 -0.221102 -6.03115 0.9571 1.114 1.7695 -0 -1.52816e-015 -0 4.12461 0.486992 4.1451 15.5345 -10.1547 -11.3979 3.4052 -1.45401 2.7682 11.5593 -5.66235 -4.25343 1.4531 -1.79499 1.2713 13.7497 -6.84535 -4.9415 5.6954 0.209987 2.1184 16.5902 -13.2316 -6.81018 3.9766 -1.53999 2.3863 13.9315 -7.6648 -5.01846 1.4042 -1.926 1.125 15.5409 -8.64012 -5.48708 2.0956 0.66 -0.3894 -0 -1.52816e-015 -0 5.0395 -0.0900146 2.4971 17.3085 -8.94164 -4.09909 3.7921 -1.55199 1.4806 14.5611 -8.80564 -6.04201 1.4655 -1.808 0.9609 15.2149 -9.24447 -6.26711 4.9141 -1.269 0.359099 18.3857 -8.57081 -1.4449 3.1477 -1.685 0.8462 16.2298 -10.548 -6.40912 0.805497 -1.58501 0.795498 14.83 -9.53365 -5.95535 -1.7069 20.075 5.0056 -22.0575 -0.224316 5.18813 -13.6458 -0.0470146 -4.849 8.02835 -41.1032 32.7513 -28.3255 -0.9759 2.2888 -6.19373 -7.30575 12.625 -22.1583 -0.530017 10.8316 -18.2119 -46.4608 -14.2188 -0.786 0.112005 2.5817 -3.23395 7.26787 -9.82828 -0.360103 -0.877995 4.2331 1.47672 -1.18404 4.36337 -1.8127 -1.216 2.2227 3.64907 -2.62203 10.4186 -0.9571 1.114 1.7695 -4.77083e-015 -4.77083e-015 -3.18055e-015 -4.12461 0.487012 4.1451 -11.2221 -0.600596 -0.166598 -3.4052 -1.45401 2.7682 -3.57981 -1.21169 0.465605 -1.4531 -1.795 1.2713 -8.61054 -2.96264 0.991514 -5.69541 0.210003 2.1184 -18.0779 -6.01614 1.41664 -3.9766 -1.54 2.3863 -7.39518 -2.84951 0.836069 -1.4042 -1.926 1.125 -15.5188 -6.08058 1.32563 -2.0956 0.66 -0.3894 -4.77083e-015 -4.77083e-015 -3.18055e-015 -5.03951 -0.0899871 2.4971 -24.8782 -9.74038 1.13041 -3.7921 -1.55201 1.4806 -4.30737 -1.8208 0.710837 -1.4655 -1.808 0.9609 -14.8311 -6.47339 1.86584 -4.91411 -1.26899 0.359201 -27.0032 -9.35743 -0.784689 -3.1477 -1.68501 0.846199 -6.43862 -2.93791 0.919915 -0.8055 -1.585 0.795501 -14.4863 -6.73688 1.60197 8.36701 -8.2066 0.5982 47.2718 -86.1516 41.0152 2.19246 -43.463 -0.492652 -178.302 57.6584 179.55 0.733289 -45.8594 -2.64509 -26.2578 -24.9301 -19.2447 -8.36701 -8.20661 0.598201 -41.0523 -73.3878 1.45441 -2.19249 -43.463 -0.493057 161.033 32.9909 -148.25 -0.733302 -45.8593 -2.64513 -17.7931 -54.4024 -3.08022 
-4.86173 38.1617 -17.8155 18.7599 -4.18025 8.10655 5.44379e-007 -1.186 -1.5018 3.12298 20.879 -1.60657 1.39205e-007 9.964 0.213401 7.79278 41.6077 -5.10086 -6.63688e-007 13.134 -3.2573 7.79278 41.6078 -5.10086 1.33103e-006 20.686 -1.6905 4.88401 -8.70545 -4.87524 9.18559e-007 7.23801 -0.123702 -4.54872 -23.1196 -7.25123 1.7069 20.075 5.0056 20.1586 -11.8302 11.2724 13.6458 -0.0470106 -4.849 -49.4129 -1.90274 -38.4553 28.3255 -0.975895 2.2888 -40.0915 -29.9479 -88.8238 22.1583 -0.529981 10.8316 39.607 10.8306 -58.3867 0.786004 0.111998 2.5817 -5.82998 4.54491 -9.14262 0.360096 -0.877997 4.2331 -3.72247 -0.224398 -6.80101 1.8127 -1.21601 2.2227 -3.30023 -0.220993 -6.03119 0.9571 1.114 1.7695 -4.96962e-017 1.35733e-015 -0 4.1246 0.486994 4.1451 15.6552 -10.609 -11.9925 3.4052 -1.454 2.7682 11.8791 -5.83311 -4.3564 1.4531 -1.79499 1.2713 14.0866 -7.03003 -5.04362 5.6954 0.209986 2.1184 16.9183 -13.7737 -6.98978 3.9766 -1.53999 2.3863 14.2206 -7.83889 -5.10447 1.4042 -1.926 1.125 15.8697 -8.84127 -5.57965 2.0956 0.66 -0.3894 -4.96962e-017 1.35733e-015 -0 5.0395 -0.0900145 2.4971 17.7065 -9.10769 -4.08723 3.7921 -1.55199 1.4806 14.8762 -9.01682 -6.15089 1.4655 -1.808 0.960899 15.5296 -9.45688 -6.37369 4.9141 -1.269 0.359101 18.8798 -8.68226 -1.28245 3.1477 -1.685 0.846201 16.5402 -10.771 -6.50534 0.805499 -1.58501 0.795498 15.1574 -9.7825 -6.06818 -1.7069 20.075 5.0056 -22.2501 -0.231844 5.55874 -13.6458 -0.0470102 -4.849 8.29868 -41.6156 32.3873 -28.3255 -0.975894 2.2888 -4.49945 -9.39036 12.246 -22.1583 -0.53001 10.8316 -13.7357 -43.8899 -10.705 -0.786001 0.112005 2.5817 -3.91818 6.87989 -9.99649 -0.360106 -0.877992 4.2331 1.47672 -1.18404 4.36336 -1.81269 -1.216 2.2227 3.2255 -2.36714 9.26588 -0.9571 1.114 1.7695 7.15625e-015 0 3.18055e-015 -4.12461 0.487011 4.1451 -10.4771 0.370303 -1.06199 -3.4052 -1.45401 2.7682 -2.95116 -0.996608 0.38924 -1.4531 -1.795 1.2713 -7.47517 -2.56323 0.886152 -5.6954 0.210003 2.1184 -15.5918 -4.48262 1.37561 -3.9766 -1.54 2.3863 -6.81742 -2.62286 0.783931 -1.4042 -1.926 1.125 -13.504 -5.27378 1.24704 -2.0956 0.66 -0.3894 7.15625e-015 0 3.18055e-015 -5.03951 -0.0899867 2.4971 -21.1816 -8.46014 1.42173 -3.7921 -1.55201 1.4806 -4.19565 -1.77282 0.694083 -1.4655 -1.808 0.9609 -12.9874 -5.64366 1.72519 -4.91411 -1.26899 0.359203 -22.6976 -8.40808 0.21024 -3.1477 -1.68501 0.846198 -6.32805 -2.88651 0.90687 -0.805502 -1.585 0.7955 -12.6566 -5.86556 1.49383 8.367 -8.2066 0.5982 61.6478 -86.1389 54.7849 2.19229 -43.463 -0.493243 -178.334 55.5912 179.559 0.733282 -45.8593 -2.64506 -25.7319 -23.0306 -19.7344 -8.367 -8.2066 0.5982 -41.1403 -73.9238 3.71779 -2.1927 -43.463 -0.492997 161.869 30.7089 -148.17 -0.733298 -45.8593 -2.64509 -15.1676 -54.998 0.00671963 
-4.75101 36.556 -18.8949 18.9321 -7.81897 8.70194 5.55932e-007 -1.186 -1.5018 3.09852 21.2732 -1.57402 6.90649e-007 9.964 0.2134 7.78345 42.3979 -5.08081 1.48169e-006 13.134 -3.2573 7.78345 42.3978 -5.08079 7.45363e-006 20.686 -1.6905 4.91095 -8.63518 -4.65137 1.37895e-006 7.23802 -0.123702 -5.34895 -22.953 -7.40952 1.7069 20.075 5.0056 20.3866 -11.8296 11.2587 13.6458 -0.0470118 -4.849 -49.6835 -1.12468 -38.4566 28.3255 -0.975892 2.2888 -40.8906 -29.1294 -89.7011 22.1583 -0.52999 10.8316 40.7281 12.3187 -59.4356 0.786003 0.111998 2.5817 -6.17505 4.68719 -9.54581 0.360097 -0.877997 4.2331 -3.7223 -0.224251 -6.80101 1.8127 -1.21601 2.2227 -3.30023 -0.220991 -6.03119 0.9571 1.114 1.7695 -9.93923e-017 8.41108e-015 7.95139e-016 4.12461 0.486994 4.1451 15.7297 -10.8966 -12.3729 3.4052 -1.45401 2.7682 12.083 -5.94232 -4.42159 1.4531 -1.79499 1.2713 14.3015 -7.14816 -5.10824 5.6954 0.20999 2.1184 17.1261 -14.1197 -7.1044 3.9766 -1.53999 2.3863 14.4049 -7.95015 -5.15888 1.4042 -1.926 1.125 16.0794 -8.96989 -5.63813 2.0956 0.66 -0.3894 -9.93923e-017 8.41108e-015 7.95139e-016 5.0395 -0.0900114 2.4971 17.9612 -9.21116 -4.08047 3.7921 -1.55199 1.4806 15.0772 -9.15183 -6.21973 1.4655 -1.808 0.9609 15.7302 -9.59268 -6.44109 4.9141 -1.269 0.3591 19.1949 -8.75351 -1.17777 3.1477 -1.685 0.8462 16.7381 -10.9135 -6.56606 0.805497 -1.58501 0.7955 15.3366 -9.90154 -6.12292 -1.7069 20.075 5.0056 -22.8466 -0.252721 6.56335 -13.6458 -0.0470124 -4.849 8.08322 -41.7283 30.3299 -28.3255 -0.975893 2.2888 -3.12441 -12.0915 13.3467 -22.1583 -0.53001 10.8316 -8.40686 -42.7653 -6.88614 -0.786001 0.112006 2.5817 -4.54719 6.53263 -10.1545 -0.360105 -0.877993 4.2331 1.47673 -1.18403 4.36337 -1.8127 -1.216 2.2227 2.81794 -2.11072 8.14494 -0.9571 1.114 1.7695 -2.38542e-015 9.54166e-015 -0 -4.12461 0.487012 4.1451 -9.67249 1.30502 -1.8958 -3.40519 -1.45401 2.7682 -2.30729 -0.777323 0.308659 -1.4531 -1.795 1.2713 -6.33941 -2.16598 0.772898 -5.6954 0.210003 2.1184 -13.1678 -3.02865 1.28443 -3.9766 -1.54 2.3863 -6.20829 -2.38453 0.726499 -1.4042 -1.926 1.125 -11.5444 -4.49166 1.14335 -2.0956 0.66 -0.3894 -2.38542e-015 9.54166e-015 -0 -5.03951 -0.0899864 2.4971 -17.6307 -7.22267 1.58686 -3.7921 -1.55201 1.4806 -4.05442 -1.71221 0.672792 -1.4655 -1.808 0.9609 -11.1879 -4.83844 1.56228 -4.91411 -1.26899 0.359203 -18.573 -7.46078 0.993532 -3.1477 -1.68501 0.8462 -6.17761 -2.81662 0.888973 -0.805501 -1.585 0.795501 -10.9005 -5.02899 1.36244 8.367 -8.2066 0.598201 54.7637 -85.6124 47.0767 2.19218 -43.463 -0.493566 -178.297 54.1709 179.359 0.733291 -45.8593 -2.64511 -25.2777 -21.4386 -19.8726 -8.367 -8.2066 0.598201 -38.2677 -73.2035 7.92133 -2.19191 -43.463 -0.493165 162.501 29.0221 -148.154 -0.733302 -45.8593 -2.64509 -13.0661 -54.7685 1.87533 
